<?xml version="1.0" encoding="UTF-8" standalone="no" ?>
<!DOCTYPE svg PUBLIC "-//W3C//DTD SVG 1.1//EN" "http://www.w3.org/Graphics/SVG/1.1/DTD/svg11.dtd">
<svg xmlns="http://www.w3.org/2000/svg" xmlns:xlink="http://www.w3.org/1999/xlink" version="1.1" width="200" height="200" viewBox="0 0 200 200" xml:space="preserve">
<desc>Created with Fabric.js 4.6.0</desc>
<defs>
</defs>
<g transform="matrix(1 0 0 1 111.47 100)" id="lGvtBgh2ULuMV6rJrRKZd"  >
<g style="" vector-effect="non-scaling-stroke"   >
		<g transform="matrix(0.38 0 0 0.38 39.39 5.45)" id="c4l3r2siBpQHkFhM0jtoi"  >
<path style="stroke: none; stroke-width: 1; stroke-dasharray: none; stroke-linecap: butt; stroke-dashoffset: 0; stroke-linejoin: miter; stroke-miterlimit: 4; fill: rgb(255,48,214); fill-rule: nonzero; opacity: 1;" vector-effect="non-scaling-stroke"  transform=" translate(-826.02, -527.49)" d="M 856.46 527.76 C 838.8388794115675 510.10130530731016 810.3537832751206 509.7064799598341 792.25 526.87 L 790.25 528.72 L 790.25 540.72 L 798.25 533.25 L 798.25 533.25 C 812.9228547061962 519.3803859881037 835.9667782550623 519.6994556987803 850.25 533.97 C 850.7474769657043 534.4651921044001 851.1869724202571 535.0154001543746 851.56 535.61 C 855.1827157440575 536.7684049885765 858.6284746740407 538.4206194755119 861.8 540.52 C 861.775164204007 535.7283183471202 859.855435529222 531.1411015137386 856.46 527.76 Z" stroke-linecap="round" />
</g>
		<g transform="matrix(0.38 0 0 0.38 13.07 -54.68)" id="6CI97zgaGBXcfy9UQdWot"  >
<path style="stroke: none; stroke-width: 1; stroke-dasharray: none; stroke-linecap: butt; stroke-dashoffset: 0; stroke-linejoin: miter; stroke-miterlimit: 4; fill: rgb(255,48,214); fill-rule: nonzero; opacity: 1;" vector-effect="non-scaling-stroke"  transform=" translate(-756.75, -369.27)" d="M 750.23 357.51 C 744.653325764439 357.5023033070031 739.189951034 359.08408037181596 734.48 362.07 C 736.2039519686684 364.4757735879003 737.5526536992788 367.1293442428762 738.48 369.94 C 743.2598339398054 366.60789223663465 749.2317710940766 365.4671919412737 754.9032237882452 366.80299843047897 C 760.5746764824138 368.13880491968416 765.40975106429 371.82489828883496 768.2 376.94 C 772.0842773758377 377.4025945748107 775.7959306804705 378.8103446718499 779.01 381.04 C 775.88 367.39 764.37 357.51 750.23 357.51 Z" stroke-linecap="round" />
</g>
		<g transform="matrix(0.38 0 0 0.38 -27.37 -3.96)" id="03iToV5wWNOO8cc2syk4K"  >
<path style="stroke: none; stroke-width: 1; stroke-dasharray: none; stroke-linecap: butt; stroke-dashoffset: 0; stroke-linejoin: miter; stroke-miterlimit: 4; fill: rgb(255,48,214); fill-rule: nonzero; opacity: 1;" vector-effect="non-scaling-stroke"  transform=" translate(-650.33, -502.74)" d="M 698.18 331.63 C 687.449357547916 331.6330009379426 677.4707199081419 337.14145054688333 671.75 346.21999999999997 C 670.5616082328245 344.13485856078586 669.1170612390985 342.2065562947423 667.45 340.47999999999996 C 661.8571472417966 334.7319006922169 654.1494215317771 331.53239916624733 646.13 331.62999999999994 C 629.8113173144765 331.6465364248428 616.5865364248428 344.87131731447636 616.57 361.18999999999994 L 616.57 384 C 611.7196915691425 379.6118866671601 605.4107186640167 377.184536074849 598.87 377.19 C 584.04 377.19 572.42 389.19 572.42 404.53 L 572.42 585.72 C 572.3733339665399 622.928233722473 593.2494443215082 657.0026849574158 626.42 673.86 C 616.1272580501687 665.4628286101687 607.7181466026328 654.992326390445 601.74 643.13 C 588.4004148472928 626.9744017066035 581.1151219538559 606.6710684535835 581.14 585.72 L 581.14 404.54 C 581.14 395.54 587.35 385.95000000000005 598.84 385.95000000000005 C 605.8379442991891 385.96506275436997 612.1708012333748 390.09944645830933 615 396.5 C 618.6423507021741 396.70285276413045 622.1761787315575 397.81318978114484 625.28 399.73 L 625.28 361.19 C 625.291025416124 349.7015243320191 634.601524332019 340.391025416124 646.0899999999999 340.38 C 651.7233539377988 340.29894414726385 657.1440922551444 342.5286745084653 661.0899999999999 346.55 C 662.3906163187905 347.9059126148102 663.4946969733488 349.4374879130541 664.3699999999999 351.1 C 668.8486712732379 351.63336312920546 673.0956791278306 353.3833517077266 676.6499999999999 356.16 C 679.2124659740248 347.73205866802516 686.4980062601951 341.6037526417342 695.2402893588217 340.5225897554336 C 703.9825724574483 339.441426869133 712.5415619730741 343.6102313122189 717.0799999999998 351.16 C 721.1177713713665 351.77128529011367 724.9490428913974 353.34563947784346 728.2499999999998 355.75 C 726.9296591893041 350.5641288557571 724.3968613193781 345.76586496144546 720.8599999999998 341.75 C 715.1080899661459 335.2707388765798 706.8438964932326 331.58318870259905 698.18 331.63 Z" stroke-linecap="round" />
</g>
		<g transform="matrix(0.38 0 0 0.38 23.67 -20.27)" id="XwQA6nzJjKjnKebuHlX_Y"  >
<path style="stroke: none; stroke-width: 1; stroke-dasharray: none; stroke-linecap: butt; stroke-dashoffset: 0; stroke-linejoin: miter; stroke-miterlimit: 4; fill: rgb(69,233,255); fill-rule: nonzero; opacity: 1;" vector-effect="non-scaling-stroke"  transform=" translate(-784.65, -459.82)" d="M 779.79 538.59 L 790.29 528.72 L 790.29 403.29 C 790.3509712058147 394.48562425475143 786.1433706535049 386.1971356556929 779 381.05 C 779.5441702828541 383.4655440864772 779.8191795177872 385.93391965856006 779.82 388.41 Z" stroke-linecap="round" />
</g>
		<g transform="matrix(0.38 0 0 0.38 0 0.01)" id="Xo2XZ4PFvKce630chAZwS"  >
<path style="stroke: none; stroke-width: 1; stroke-dasharray: none; stroke-linecap: butt; stroke-dashoffset: 0; stroke-linejoin: miter; stroke-miterlimit: 4; fill: rgb(69,233,255); fill-rule: nonzero; opacity: 1;" vector-effect="non-scaling-stroke"  transform=" translate(-722.35, -513.19)" d="M 775.42 628.64 L 850.5799999999999 547.1 C 853.4862335164574 543.9425133530966 853.8970630814724 539.2220816510749 851.5799999999999 535.61 C 837.0878241563886 530.9304376317456 821.1974381914124 534.5007943625454 810.0999999999999 544.9300000000001 L 790.2699999999999 563.58 L 790.2699999999999 540.72 L 778.3899999999999 551.89 C 777.5730911423179 552.6464288325457 776.5033012308013 553.0707788307807 775.3899999999999 553.08 L 724.3899999999999 553.08 C 708.055972410132 553.0738760116814 692.5291978868669 560.1819479601406 681.8599999999999 572.5500000000001 L 675.2399999999999 566.83 C 687.5717860860515 552.5393732267382 705.5142233891796 544.3256430269339 724.3899999999999 544.33 L 771 544.33 L 771 388.41 C 771.0515360257547 384.42557987057023 770.0732883647195 380.4953665563407 768.16 377 C 760.9989742106047 376.11344990306867 753.8021070323902 378.3453856449441 748.3993290846848 383.12829813406 C 742.9965511369795 387.9112106231759 739.9083662547773 394.784313886627 739.92 402 L 739.92 379.18 C 739.9141857262169 376.04145233747437 739.4147494613682 372.9233502515271 738.4399999999999 369.94 C 732.8009137988232 373.81841962837785 729.4344501110954 380.22592218068627 729.4399999999999 387.07 L 729.4399999999999 490.07 L 720.6899999999999 490.07 L 720.6899999999999 364.3 C 720.7539848212543 359.6882725488753 719.5353267818081 355.14946377127876 717.17 351.19 C 715.8163993310102 350.98398623026543 714.4491881958089 350.8803589804091 713.0799999999999 350.88 C 705.9562850829097 350.88 699.1243389824434 353.70988473221513 694.0871118573292 358.74711185732934 C 689.049884732215 363.78433898244356 686.2199999999999 370.6162850829099 686.2199999999999 377.74 L 686.2199999999999 376.14 C 686.2968599257382 368.3717338293297 682.8019361160491 360.998476846863 676.7399999999999 356.14 C 676.0705986329289 358.31010235018164 675.7334483654757 360.5690091421175 675.7399999999999 362.84 L 675.7399999999999 490.05 L 666.9899999999999 490.05 L 666.9899999999999 361.26 C 667.0029419894556 357.71829008653316 666.1407330321332 354.22823311187346 664.4799999999999 351.09999999999997 C 663.3423847664449 350.9550893048083 662.1968064050799 350.88161197550795 661.05 350.87999999999994 C 647.1434699992606 350.87999999999994 635.87 362.1534699992606 635.87 376.05999999999995 L 635.87 418.53 C 635.873974363688 410.8646928970633 631.8985638459848 403.74681501774705 625.37 399.72999999999996 L 625.37 490.04999999999995 L 616.62 490.04999999999995 L 616.62 403.65 C 616.5930013422023 401.1787697758773 616.0407881341304 398.7415324686459 615 396.5 C 614.57 396.5 614.14 396.45 613.71 396.45 C 600.47 396.45 591.63 407.3 591.63 419.45 L 591.63 600.59 C 591.6163520106865 615.365572926365 595.0760640238226 629.9374688708015 601.73 643.13 C 618.4907324477568 663.5994011748804 643.5440353104843 675.4783438095147 670 675.5 C 714.86 675.5 745.39 661.92 775.42 628.64 Z" stroke-linecap="round" />
</g>
		<g transform="matrix(0.38 0 0 0.38 10.27 39.69)" id="Pglxmtmp_wN53rjkf4lEq"  >
<path style="stroke: none; stroke-width: 1; stroke-dasharray: none; stroke-linecap: butt; stroke-dashoffset: 0; stroke-linejoin: miter; stroke-miterlimit: 4; fill: rgb(69,233,255); fill-rule: nonzero; opacity: 1;" vector-effect="non-scaling-stroke"  transform=" translate(-749.37, -617.6)" d="M 868.25 545.74 L 868.25 545.74 C 866.2877366822761 543.7961713751405 864.1409508058703 542.0479307706414 861.84 540.52 C 861.8766337563602 545.1448970104207 860.1453136172439 549.6091274517784 857 553 L 781.88 634.5 C 766.47 651.58 751.48 663.25 734.73 671.18 C 716.19 679.9499999999999 695.03 684.18 670.02 684.18 C 654.877770806661 684.1973284789256 639.9456135235419 680.6373212698478 626.4399999999999 673.79 C 642.9175974512004 687.3096793112177 663.5758549489151 694.6929299378603 684.89 694.68 C 735.35 694.68 765.79 677.13 793.54 646.3699999999999 L 868.66 564.8699999999999 C 873.6632100531046 559.4105369033706 873.4825260915935 550.9800876748141 868.25 545.74 Z" stroke-linecap="round" />
</g>
		<g transform="matrix(0.38 0 0 0.38 3.43 -57.84)" id="XkXIn-I11CuOfr-HnMLiu"  >
<path style="stroke: none; stroke-width: 1; stroke-dasharray: none; stroke-linecap: butt; stroke-dashoffset: 0; stroke-linejoin: miter; stroke-miterlimit: 4; fill: rgb(69,233,255); fill-rule: nonzero; opacity: 1;" vector-effect="non-scaling-stroke"  transform=" translate(-731.39, -360.94)" d="M 729.41 366.09 C 730.949953868601 364.57676528082226 732.6499536862758 363.2355425449842 734.48 362.09 C 732.780366711784 359.6706780172583 730.6961385436231 357.545913806929 728.3100000000001 355.79999999999995 C 729.0354237033935 358.58206804164286 729.40504000988 361.44491434279354 729.4100000000001 364.31999999999994 Z" stroke-linecap="round" />
</g>
		<g transform="matrix(0.38 0 0 0.38 -19.69 -35.18)" id="MK4nrKCjyRxpoGNOI9g5o"  >
<path style="stroke: none; stroke-width: 1; stroke-dasharray: none; stroke-linecap: butt; stroke-dashoffset: 0; stroke-linejoin: miter; stroke-miterlimit: 4; fill: rgb(69,44,214); fill-rule: nonzero; opacity: 1;" vector-effect="non-scaling-stroke"  transform=" translate(-670.55, -420.58)" d="M 666.94 490.05 L 675.69 490.05 L 675.69 362.86 C 675.6834483654759 360.58900914211756 676.020598632929 358.3301023501817 676.69 356.16 C 673.1356791278308 353.3833517077266 668.8886712732381 351.63336312920546 664.4100000000001 351.1 C 666.0707330321334 354.2282331118735 666.9329419894558 357.7182900865332 666.9200000000001 361.26000000000005 Z" stroke-linecap="round" />
</g>
		<g transform="matrix(0.38 0 0 0.38 -38.83 -26.56)" id="iBZsiLlRQJtzTZnVqtjRQ"  >
<path style="stroke: none; stroke-width: 1; stroke-dasharray: none; stroke-linecap: butt; stroke-dashoffset: 0; stroke-linejoin: miter; stroke-miterlimit: 4; fill: rgb(69,44,214); fill-rule: nonzero; opacity: 1;" vector-effect="non-scaling-stroke"  transform=" translate(-620.16, -443.27)" d="M 616.57 490.05 L 625.32 490.05 L 625.32 399.73 C 622.2044320387297 397.8068339132786 618.6560658277863 396.6962503026829 615 396.5 C 616.0097893737119 398.748351335146 616.5312618436352 401.1852978449181 616.53 403.65 Z" stroke-linecap="round" />
</g>
		<g transform="matrix(0.38 0 0 0.38 2.05 -35.16)" id="NCgjtDf5Ckwgl2LLESGTA"  >
<path style="stroke: none; stroke-width: 1; stroke-dasharray: none; stroke-linecap: butt; stroke-dashoffset: 0; stroke-linejoin: miter; stroke-miterlimit: 4; fill: rgb(69,44,214); fill-rule: nonzero; opacity: 1;" vector-effect="non-scaling-stroke"  transform=" translate(-727.74, -420.62)" d="M 720.66 490.05 L 729.41 490.05 L 729.41 387.05 C 729.4044501110955 380.2059221806863 732.7709137988231 373.79841962837787 738.41 369.92 C 737.4826536992788 367.1093442428762 736.1339519686684 364.4557735879003 734.41 362.05 C 732.5799536862758 363.19554254498416 730.879953868601 364.5367652808223 729.3399999999999 366.05 L 729.3399999999999 364.3 C 729.3350400098799 361.4249143427936 728.9654237033933 358.56206804164293 728.2399999999999 355.78000000000003 C 724.9390428913975 353.3756394778435 721.1077713713665 351.80128529011364 717.0699999999999 351.19000000000005 C 719.435326781808 355.1494637712788 720.6539848212543 359.6882725488754 720.5899999999999 364.30000000000007 Z" stroke-linecap="round" />
</g>
		<g transform="matrix(0.38 0 0 0.38 3.59 36.78)" id="QMWhUnTWAH45l2itWm_GP"  >
<path style="stroke: none; stroke-width: 1; stroke-dasharray: none; stroke-linecap: butt; stroke-dashoffset: 0; stroke-linejoin: miter; stroke-miterlimit: 4; fill: rgb(69,44,214); fill-rule: nonzero; opacity: 1;" vector-effect="non-scaling-stroke"  transform=" translate(-731.81, -609.93)" d="M 851.6 535.61 C 853.9170630814725 539.2220816510749 853.5062335164575 543.9425133530966 850.6 547.1 L 775.44 628.64 C 745.44 661.92 714.8800000000001 675.5 670.0500000000001 675.5 C 643.597537994542 675.4753497942202 618.5485124198357 663.5966952695609 601.7900000000001 643.13 C 607.7681466026329 654.992326390445 616.1772580501688 665.4628286101686 626.47 673.86 C 639.9605447686802 680.6996642108044 654.8746664413054 684.2594557150215 670 684.25 C 695 684.25 716.17 679.98 734.71 671.25 C 751.46 663.32 766.45 651.65 781.86 634.57 L 857 553 C 860.1488202270491 549.6000227010802 861.877025071422 545.1238648122385 861.83 540.49 C 858.6599128025103 538.4019190598332 855.2176452511187 536.7598598564323 851.6 535.61 Z" stroke-linecap="round" />
</g>
		<g transform="matrix(0.38 0 0 0.38 3.95 -14.59)" id="bEmmNRC9Y-FLdh4Fj8ypd"  >
<path style="stroke: none; stroke-width: 1; stroke-dasharray: none; stroke-linecap: butt; stroke-dashoffset: 0; stroke-linejoin: miter; stroke-miterlimit: 4; fill: rgb(69,44,214); fill-rule: nonzero; opacity: 1;" vector-effect="non-scaling-stroke"  transform=" translate(-732.74, -474.75)" d="M 681.84 572.55 C 692.5091978868671 560.1819479601405 708.035972410132 553.0738760116813 724.37 553.0799999999999 L 775.37 553.0799999999999 C 776.4833012308014 553.0707788307806 777.5530911423181 552.6464288325456 778.37 551.8899999999999 L 790.25 540.7199999999999 L 790.25 528.7199999999999 L 779.75 538.5899999999999 L 779.75 388.41 C 779.7491795177872 385.93391965856006 779.4741702828541 383.4655440864772 778.93 381.05 C 775.7159306804705 378.8203446718499 772.0042773758377 377.41259457481067 768.12 376.95 C 770.0555919348917 380.4563874333014 771.0479465149357 384.40513169972627 771 388.41 L 771 544.33 L 724.37 544.33 C 705.4942233891798 544.3256430269338 687.5517860860515 552.5393732267382 675.22 566.8300000000002 Z" stroke-linecap="round" />
</g>
</g>
</g>
</svg>