<?xml version="1.0" encoding="UTF-8" standalone="no" ?>
<!DOCTYPE svg PUBLIC "-//W3C//DTD SVG 1.1//EN" "http://www.w3.org/Graphics/SVG/1.1/DTD/svg11.dtd">
<svg xmlns="http://www.w3.org/2000/svg" xmlns:xlink="http://www.w3.org/1999/xlink" version="1.1" width="200" height="200" viewBox="0 0 200 200" xml:space="preserve">
<desc>Created with Fabric.js 4.6.0</desc>
<defs>
</defs>
<g transform="matrix(1 0 0 1 100 100)" id="o6XtviXKcM8qtsuEO6kzY"  >
<g style="" vector-effect="non-scaling-stroke"   >
		<g transform="matrix(0.38 0 0 0.38 -5.87 -7.61)" id="MopixVgqtTitaQx_93Jbd"  >
<path style="stroke: none; stroke-width: 1; stroke-dasharray: none; stroke-linecap: butt; stroke-dashoffset: 0; stroke-linejoin: miter; stroke-miterlimit: 4; fill: rgb(255,48,214); fill-rule: nonzero; opacity: 1;" vector-effect="non-scaling-stroke"  transform=" translate(-305.43, -529.36)" d="M 194 569.59 L 194 537 C 195.8238111936852 538.9911408848916 197.8821414401409 540.7539848969458 200.13000000000002 542.25 L 200.13 530.71 C 196.17829373371634 526.238943155809 193.9980421789989 520.4771038105524 194 514.51 L 194 476.66 C 193.99079983258468 467.00497117668544 199.64617260668547 458.2425491651001 208.44801693821984 454.27427465524676 C 217.24986126975423 450.30600014539345 227.56087727011135 451.8700429080874 234.79 458.27000000000004 C 240.8800704116304 458.50910026982143 246.78495778045732 460.4300923505359 251.84999999999997 463.82000000000005 L 251.85 439.28 C 251.84024729524157 429.0107888141681 257.7885827684326 419.6684901492797 267.0975494857373 415.3326012957022 C 276.40651620304203 410.9967124421247 287.3853778786903 412.45473697983994 295.24 419.07 C 303.00448196504925 419.5332618088655 310.3934220544794 422.56976433133127 316.24 427.7 C 319.8808305979762 420.39208661225604 326.66305415440524 415.1498214942672 334.6526168514486 413.46811598023095 C 342.642179548492 411.78641046619475 350.9621637910436 413.84984501576406 357.24 419.07 C 364.8851322480017 419.5404385864952 372.1706354012507 422.4813112466217 378 427.45 C 381.11665147643424 421.1820692891639 387.03012627570064 416.7714251444872 393.9264678039053 415.5710313142128 C 400.82280933211007 414.3706374839384 407.87879375516576 416.52378629303774 412.93 421.37 C 417.3039734377066 421.41542433267267 421.617447946525 422.3974643789491 425.58 424.25 C 420.71869000599565 413.83593591895783 410.45730089097106 407.00054390641947 398.9742272704061 406.52716692499274 C 387.4911536498412 406.053789943566 376.70197514594173 412.02139563982405 371 422 C 364.6385631674235 410.86586361721817 352.76424144943275 404.03076617661793 339.94127171830013 404.12197385010154 C 327.11830198716746 404.2131815235852 315.342410637429 411.21649903773545 309.14 422.44 C 301.4304170126941 408.35900938936857 285.1623952645838 401.28803132340386 269.60733736492074 405.2569279147724 C 254.05227946525767 409.22582450614095 243.16074848386012 423.2266036018771 243.14 439.28 L 243.14 454.17999999999995 C 233.86799880720767 444.0468827633013 219.32455371567679 440.64844130146304 206.52218773137523 445.6233278585434 C 193.71982174707364 450.5982144156238 185.28706355335405 462.9250059181264 185.29 476.65999999999997 L 185.29 569.5899999999999 C 185.2949466992055 602.4960416216055 200.0153659647916 633.6755989994978 225.41999999999996 654.5899999999999 C 215.48806381688473 642.5857110287582 208.21474007269583 628.6116588492014 204.07999999999996 613.5899999999999 C 197.4406168954264 599.8726492319588 193.99440370343618 584.8296551399382 194 569.5900000000001 Z" stroke-linecap="round" />
</g>
		<g transform="matrix(0.38 0 0 0.38 7.61 3.82)" id="Xs5NHIhxv7kqO0uvA3FeM"  >
<path style="stroke: none; stroke-width: 1; stroke-dasharray: none; stroke-linecap: butt; stroke-dashoffset: 0; stroke-linejoin: miter; stroke-miterlimit: 4; fill: rgb(69,233,255); fill-rule: nonzero; opacity: 1;" vector-effect="non-scaling-stroke"  transform=" translate(-340.9, -559.46)" d="M 452.84 543.23 C 450.6035506568454 537.2614978543244 447.3859524340203 531.7084370558982 443.32 526.8000000000001 L 443.32 452.13 C 443.30417976576825 440.1770739155989 436.37853506614965 429.3111777858652 425.55 424.25 C 427.45541350895314 428.31882931929425 428.4420797261109 432.7571202615261 428.44 437.25 L 428.44 511.92 C 436.9372319129457 522.159120463763 441.59187252316417 535.044269204664 441.6 548.35 L 441.6 548.35 L 441.6 548.35 L 441.6 548.35 L 441.6 548.35 C 441.6 620.83 382.6 679.8 310.15000000000003 679.8 L 295.51 679.8 C 269.89270961862053 679.82227888632 245.073911513013 670.8866625786283 225.35000000000002 654.54 C 246.26351302045947 679.9457744682263 277.4436420933358 694.6664636411032 310.34999999999997 694.67 L 325 694.67 C 397.48 694.67 456.44 635.67 456.44 563.22 L 456.44 563.22 L 456.44 563.22 L 456.44 563.22 L 456.44 563.22 C 456.44864221898126 556.3946820318829 455.22921745686574 549.6234873111362 452.84 543.23 Z" stroke-linecap="round" />
</g>
		<g transform="matrix(0.38 0 0 0.38 -37.72 -19.27)" id="SR0O7ZkSmG1sNcXo0D2Fb"  >
<path style="stroke: none; stroke-width: 1; stroke-dasharray: none; stroke-linecap: butt; stroke-dashoffset: 0; stroke-linejoin: miter; stroke-miterlimit: 4; fill: rgb(69,233,255); fill-rule: nonzero; opacity: 1;" vector-effect="non-scaling-stroke"  transform=" translate(-221.6, -498.68)" d="M 200.1 491.53 L 200.1 530.7099999999999 C 206.83371704206718 538.4146850191532 217.64268241173065 541.1300786760744 227.21821713043613 537.5225516425155 C 236.79375184914161 533.9150246089567 243.12402202213767 524.7425236080569 243.1 514.5099999999999 L 243.1 476.66 C 243.10696325730356 469.61945452434463 240.07856617507167 462.9176227142069 234.79 458.27000000000004 C 234.34 458.27000000000004 233.89 458.27000000000004 233.42999999999998 458.27000000000004 C 215.05192661615027 458.2754594139756 200.1440977474655 473.1519787110789 200.1 491.53 Z" stroke-linecap="round" />
</g>
		<g transform="matrix(0.38 0 0 0.38 -1.67 13.74)" id="3_k0-dZse2QL4zRMCg5dV"  >
<path style="stroke: none; stroke-width: 1; stroke-dasharray: none; stroke-linecap: butt; stroke-dashoffset: 0; stroke-linejoin: miter; stroke-miterlimit: 4; fill: rgb(69,233,255); fill-rule: nonzero; opacity: 1;" vector-effect="non-scaling-stroke"  transform=" translate(-316.48, -585.56)" d="M 204 613.58 C 220.9310640461848 648.7308519228208 256.4840814236922 671.0923399017885 295.5 671.13 L 310.14 671.13 C 377.87335590724257 671.0528485961207 432.76284859612065 616.1633559072426 432.84 548.43 L 432.84 548.43 L 432.84 548.43 L 432.84 548.43 L 432.84 548.43 L 432.84 548.43 L 432.84 548.43 C 432.82895648654915 521.675709294423 411.1342924144816 499.9944756788589 384.37999999999994 500 L 257.8 500 C 254.48629150101524 500 251.8 502.68629150101526 251.8 506 L 251.8 512.47 C 251.82755070075294 535.3728726895868 270.3871273104133 553.9324492992471 293.29 553.96 L 356.1 553.96 L 356.1 562.71 L 355.38 562.71 C 329.66209991563863 562.7375671264946 308.822046486214 583.5820945905756 308.8 609.3000000000001 L 308.8 624.3 L 300.05 624.3 L 300.05 609.23 C 300.05348221000753 590.3688163650437 309.664671404146 572.8086083432825 325.54999999999995 562.64 L 293.31 562.64 C 273.07698190386304 562.6052207916741 254.83263653929703 550.4554559235416 247 531.8 C 242.30005854413562 539.5513058392378 234.6391350426207 545.0476706534179 225.79068666011807 547.0167194400511 C 216.94223827761544 548.9857682266845 207.67345364752313 547.2567781898174 200.13 542.2299999999999 L 200.13 584.4599999999999 C 200.11406748226594 594.2959174018374 201.4156393674354 604.0896572716397 204 613.58 Z" stroke-linecap="round" />
</g>
		<g transform="matrix(0.38 0 0 0.38 29.19 -33.05)" id="MRnSsA4bzNPmxvHNP9QsS"  >
<path style="stroke: none; stroke-width: 1; stroke-dasharray: none; stroke-linecap: butt; stroke-dashoffset: 0; stroke-linejoin: miter; stroke-miterlimit: 4; fill: rgb(69,233,255); fill-rule: nonzero; opacity: 1;" vector-effect="non-scaling-stroke"  transform=" translate(-397.67, -462.42)" d="M 385.84 436.87 C 383.7775707044187 433.30101613514626 381.115242182404 430.11434082671195 377.96999999999997 427.45 C 376.442378963285 430.49081684996077 375.6478463032163 433.84703239680283 375.65 437.25 L 375.65 491.25 L 384.38 491.25 C 397.18868438508537 491.2403110903142 409.6273185616863 495.54504373370315 419.69 503.47 L 419.69 437.25 C 419.68586757138354 431.2524191726723 417.23329634432525 425.5165088507746 412.9 421.37 L 412.54999999999995 421.37 C 401.51141239771204 421.3733959942307 391.3198443946068 427.28763425885563 385.84 436.87 Z" stroke-linecap="round" />
</g>
		<g transform="matrix(0.38 0 0 0.38 7.34 -35.83)" id="8gbJteyI_i5mmevyclIWD"  >
<path style="stroke: none; stroke-width: 1; stroke-dasharray: none; stroke-linecap: butt; stroke-dashoffset: 0; stroke-linejoin: miter; stroke-miterlimit: 4; fill: rgb(69,233,255); fill-rule: nonzero; opacity: 1;" vector-effect="non-scaling-stroke"  transform=" translate(-340.18, -455.11)" d="M 324 437.31 C 322.00018845812855 433.67698788859656 319.3768802614165 430.4240857246736 316.25 427.7 C 314.39305755066846 431.3989641512623 313.4273193776126 435.48109146432097 313.43 439.62 L 313.43 491.21000000000004 L 366.93 491.21000000000004 L 366.93 439.62 C 366.93330162648067 431.67710962163454 363.4000471142201 424.1451199715355 357.29 419.07 C 356.55 419.07 355.81 419 355.06 419 C 342.14888937050847 419.00660278290684 330.257508981883 426.01662129275013 324 437.31 Z" stroke-linecap="round" />
</g>
		<g transform="matrix(0.38 0 0 0.38 -16.17 -35.59)" id="SMmXLjrLkabFpFWt_3jJ5"  >
<path style="stroke: none; stroke-width: 1; stroke-dasharray: none; stroke-linecap: butt; stroke-dashoffset: 0; stroke-linejoin: miter; stroke-miterlimit: 4; fill: rgb(69,233,255); fill-rule: nonzero; opacity: 1;" vector-effect="non-scaling-stroke"  transform=" translate(-278.3, -455.74)" d="M 258 454.16 L 258 469.06 C 256.17857481791793 467.06929245058865 254.11987319833852 465.30948878230214 251.87 463.82 L 251.87 476.65999999999997 L 251.87 476.65999999999997 L 251.87 492.46999999999997 C 253.75949049672192 491.63382512630943 255.80376361194664 491.20452777211227 257.87 491.21 L 304.72 491.21 L 304.72 439.28 C 304.7205105856182 431.47799741988393 301.26349216511414 424.0769018395464 295.28000000000003 419.07 C 294.59000000000003 419.07 293.89000000000004 419 293.18 419 C 273.762996177572 419.01101985705424 258.02206165353954 434.74300558374506 258 454.16 Z" stroke-linecap="round" />
</g>
		<g transform="matrix(0.38 0 0 0.38 -0.02 0.02)" id="HnjEqRMg0x8tmPAB92smE"  >
<path style="stroke: none; stroke-width: 1; stroke-dasharray: none; stroke-linecap: butt; stroke-dashoffset: 0; stroke-linejoin: miter; stroke-miterlimit: 4; fill: rgb(69,44,214); fill-rule: nonzero; opacity: 1;" vector-effect="non-scaling-stroke"  transform=" translate(-320.82, -549.45)" d="M 310.15 679.88 C 382.63 679.88 441.59999999999997 620.88 441.59999999999997 548.4300000000001 L 441.59999999999997 548.4300000000001 L 441.59999999999997 548.4300000000001 L 441.59999999999997 548.4300000000001 L 441.59999999999997 548.4300000000001 C 441.5918725231641 535.1242692046641 436.9372319129456 522.239120463763 428.43999999999994 512.0000000000001 L 428.43999999999994 437.25 C 428.4420797261108 432.7571202615261 427.4554135089531 428.31882931929425 425.54999999999995 424.25 C 421.58744794652495 422.3974643789491 417.27397343770656 421.41542433267267 412.9 421.37 C 417.23329634432525 425.5165088507746 419.68586757138354 431.2524191726723 419.69 437.25 L 419.69 503.43 C 409.6273185616863 495.50504373370313 397.18868438508537 491.2003110903142 384.38 491.21 L 375.65 491.21 L 375.65 437.21 C 375.64784630321634 433.8070323968028 376.442378963285 430.45081684996075 377.96999999999997 427.40999999999997 C 372.15408536806643 422.4513037334558 364.8877191265305 419.5110744189183 357.26 419.03 C 363.37004711422003 424.1051199715355 366.90330162648064 431.6371096216345 366.9 439.58 L 366.9 491.16999999999996 L 313.4 491.16999999999996 L 313.4 439.62 C 313.3973193776126 435.48109146432097 314.3630575506684 431.3989641512623 316.21999999999997 427.7 C 310.37342205447936 422.56976433133127 302.9844819650492 419.5332618088655 295.21999999999997 419.07 C 301.2034921651141 424.07690183954634 304.6605105856181 431.47799741988393 304.65999999999997 439.28 L 304.65999999999997 491.21 L 257.8 491.21 C 255.73376361194664 491.2045277721122 253.68949049672193 491.63382512630943 251.8 492.46999999999997 L 251.8 476.66 L 251.8 476.66 L 251.8 463.82 C 246.73495778045736 460.43009235053586 240.8300704116304 458.5091002698214 234.74 458.27 C 240.0285661750717 462.91762271420686 243.05696325730358 469.6194545243446 243.05 476.65999999999997 L 243.05 514.51 C 243.07402202213768 524.742523608057 236.74375184914163 533.9150246089569 227.16821713043615 537.5225516425156 C 217.59268241173066 541.1300786760745 206.78371704206717 538.4146850191534 200.05 530.71 L 200.05 542.23 C 207.59938469768753 547.2832215067463 216.8876144384533 549.0274787125926 225.7559253673152 547.0573725786622 C 234.6242362961771 545.0872664447319 242.3002815269487 539.5743747776899 247 531.8 C 254.83687316342196 550.4654984773664 273.09606515233855 562.6172783853981 293.34000000000003 562.64 L 325.6 562.64 C 309.71467140414603 572.8086083432825 300.10348221000754 590.3688163650438 300.1 609.23 L 300.1 624.3 L 308.85 624.3 L 308.85 609.23 C 308.872046486214 583.5120945905755 329.7120999156386 562.6675671264945 355.43 562.64 L 356.15000000000003 562.64 L 356.15000000000003 553.89 L 293.31 553.89 C 270.4071273104133 553.862449299247 251.84755070075295 535.3028726895867 251.82 512.4 L 251.82 505.92999999999995 C 251.82 502.6162915010152 254.50629150101523 499.92999999999995 257.82 499.92999999999995 L 384.38 499.92999999999995 C 411.09920932480514 499.91888844956895 432.7838246964882 521.5408703128543 432.85 548.26 L 432.85 548.26 L 432.85 548.26 L 432.85 548.26 L 432.85 548.26 L 432.85 548.26 L 432.85 548.26 C 432.77284859612075 615.9933559072426 377.8833559072426 670.8828485961208 310.15000000000003 670.96 L 295.51 670.96 C 256.52897467341586 670.9576858145687 220.98111151542048 648.6679208926391 204 613.58 C 208.13474007269588 628.6016588492015 215.40806381688475 642.5757110287584 225.33999999999997 654.58 C 245.063911513013 670.9266625786283 269.88270961862054 679.86227888632 295.5 679.84 Z" stroke-linecap="round" />
</g>
</g>
</g>
</svg>