<?xml version="1.0" encoding="UTF-8" standalone="no" ?>
<!DOCTYPE svg PUBLIC "-//W3C//DTD SVG 1.1//EN" "http://www.w3.org/Graphics/SVG/1.1/DTD/svg11.dtd">
<svg xmlns="http://www.w3.org/2000/svg" xmlns:xlink="http://www.w3.org/1999/xlink" version="1.1" width="200" height="200" viewBox="0 0 200 200" xml:space="preserve">
<desc>Created with Fabric.js 4.6.0</desc>
<defs>
</defs>
<g transform="matrix(1 0 0 1 100 100)" id="11mxNWvFpPTtS25K8OBQ0"  >
<g style="" vector-effect="non-scaling-stroke"   >
		<g transform="matrix(0.38 0 0 0.38 7.67 3.33)" id="NVfww-CnsjI3B446Ulr18"  >
<path style="stroke: none; stroke-width: 1; stroke-dasharray: none; stroke-linecap: butt; stroke-dashoffset: 0; stroke-linejoin: miter; stroke-miterlimit: 4; fill: rgb(69,233,255); fill-rule: nonzero; opacity: 1;" vector-effect="non-scaling-stroke"  transform=" translate(-1110.35, -512.75)" d="M 1208.76 340 C 1205.757946309437 336.00042153018603 1201.795795218132 332.8224461757017 1197.24 330.76 C 1199.5800346224826 335.90940484198103 1200.3988855962718 341.62054341341013 1199.6 347.21999999999997 C 1194.01 388.96999999999997 1189.77 418.78999999999996 1186.6699999999998 440.55999999999995 C 1177.31 506.36999999999995 1177.31 506.36999999999995 1177.31 571.16 L 1177.31 571.16 C 1177.31 602.62 1165.4199999999998 631.0999999999999 1143.82 651.3499999999999 C 1124.1217358081344 669.6960115172493 1098.198347324526 679.8881129723433 1071.28 679.8699999999999 Q 1067.86 679.8699999999999 1064.43 679.6399999999999 C 1042.9647286186841 678.2298877063755 1022.4906443861332 670.0871439003346 1005.9200000000001 656.3699999999999 C 1006.84 657.4799999999999 1007.7700000000001 658.5799999999999 1008.73 659.6599999999999 C 1027.22 680.3899999999999 1052.29 692.7699999999999 1079.3 694.5199999999999 C 1081.59 694.6699999999998 1083.87 694.7399999999999 1086.1599999999999 694.7399999999999 C 1113.0779700008054 694.756118566848 1139.0006538079233 684.5642941640496 1158.6999999999998 666.2199999999999 C 1180.2899999999997 645.9799999999999 1192.1899999999998 617.4999999999999 1192.1899999999998 586.03 L 1192.1899999999998 586.03 C 1192.1899999999998 521.25 1192.1899999999998 521.25 1201.5499999999997 455.43999999999994 C 1204.6399999999996 433.66999999999996 1208.8899999999996 403.8499999999999 1214.4799999999998 362.0899999999999 C 1215.6033434297792 354.25806424556447 1213.543314165305 346.30246171894964 1208.76 340 Z" stroke-linecap="round" />
</g>
		<g transform="matrix(0.38 0 0 0.38 14.25 -26.4)" id="-o8x_b0uteLpnhLksX-mA"  >
<path style="stroke: none; stroke-width: 1; stroke-dasharray: none; stroke-linecap: butt; stroke-dashoffset: 0; stroke-linejoin: miter; stroke-miterlimit: 4; fill: rgb(69,233,255); fill-rule: nonzero; opacity: 1;" vector-effect="non-scaling-stroke"  transform=" translate(-1127.67, -434.52)" d="M 1077.66 455.86 C 1080.887584767012 460.9013919769518 1082.5987975849994 466.7639446130177 1082.5900000000001 472.75 L 1082.5900000000001 514 L 1120.13 514 C 1139.8491233938012 514.0106888662242 1158.1727608436058 524.1757919266437 1168.6200000000001 540.9 C 1168.88 503.52 1170.3000000000002 493.54999999999995 1178.0100000000002 439.34999999999997 C 1181.1000000000001 417.59 1185.3400000000001 387.78999999999996 1190.9400000000003 346.04999999999995 C 1191.857542926436 339.45838484032424 1189.6114655170645 332.82022536807267 1184.8800000000003 328.13999999999993 C 1170.0490392083098 328.17763456778397 1157.4981827462402 339.10531509229463 1155.4200000000003 353.7899999999999 L 1139.4200000000003 463.2299999999999 L 1135.3200000000004 435.0699999999999 L 1128.8700000000003 479.33999999999986 C 1128.543928831533 481.4794700755047 1126.7041752726818 483.0600757619243 1124.5400000000004 483.0600757619243 C 1122.3758247273188 483.0600757619243 1120.5360711684675 481.4794700755047 1120.2100000000003 479.33999999999986 L 1100.0200000000002 340.58999999999986 C 1099.3737865163148 336.0326792139837 1097.2439832703476 331.81524704375164 1093.9600000000003 328.58999999999986 C 1085.3283238023726 328.59608897624463 1077.123643968157 332.34580297051906 1071.4701290538678 338.8683515652198 C 1065.8166141395786 345.39090015992065 1063.2701466998294 354.04495295610445 1064.4900000000002 362.58999999999986 Z" stroke-linecap="round" />
</g>
		<g transform="matrix(0.38 0 0 0.38 -34.24 4.85)" id="LAtR03QQ6T3XOSHgD9F43"  >
<path style="stroke: none; stroke-width: 1; stroke-dasharray: none; stroke-linecap: butt; stroke-dashoffset: 0; stroke-linejoin: miter; stroke-miterlimit: 4; fill: rgb(69,233,255); fill-rule: nonzero; opacity: 1;" vector-effect="non-scaling-stroke"  transform=" translate(-1000.08, -516.77)" d="M 997 552.91 C 1008.4125537245078 552.8941015961041 1018.0439006817012 544.4180028301333 1019.51 533.1 C 1019.51 532.85 1019.51 532.6 1019.51 532.36 C 1019.5075177413132 531.4798169592298 1019.5710290728438 530.6006864227816 1019.7 529.73 L 1019.7 497.18 C 1019.7011396518405 490.90806363904346 1017.0969996282475 484.91745501731486 1012.51 480.64 L 1011.89 480.64 C 994.5408268338949 480.6620377188342 980.4820377188342 494.72082683389493 980.46 512.0699999999999 L 980.46 545.7 C 984.7339679174985 550.2943846207259 990.7250374059579 552.9059693251872 997 552.91 Z" stroke-linecap="round" />
</g>
		<g transform="matrix(0.38 0 0 0.38 -5.95 35.32)" id="wpWjs80GJXHwL46RTsGUI"  >
<path style="stroke: none; stroke-width: 1; stroke-dasharray: none; stroke-linecap: butt; stroke-dashoffset: 0; stroke-linejoin: miter; stroke-miterlimit: 4; fill: rgb(69,233,255); fill-rule: nonzero; opacity: 1;" vector-effect="non-scaling-stroke"  transform=" translate(-1074.52, -596.95)" d="M 1137.84 645 C 1157.6499999999999 626.43 1168.56 600.22 1168.56 571.2 C 1168.5324402146416 544.4642735234389 1146.8657264765611 522.7975597853584 1120.1299999999999 522.7700000000001 L 1037.9099999999999 522.7700000000001 C 1033.327956954423 522.7750938363645 1029.3840352959396 526.008022194803 1028.4799999999998 530.5000000000001 C 1028.4799999999998 531.5000000000001 1028.4099999999999 532.5000000000001 1028.3099999999997 533.5000000000001 C 1028.9401747503027 552.0555907499199 1044.1537240974637 566.778380440721 1062.7199999999998 566.8000000000001 L 1104.2299999999998 566.8000000000001 L 1104.2299999999998 575.5500000000001 C 1081.7082035073643 575.577549629061 1063.4575496290606 593.8282035073646 1063.4299999999998 616.35 L 1063.4299999999998 629.7 L 1054.6799999999998 629.7 L 1054.6799999999998 616.34 C 1054.6826460281557 600.0369958227209 1062.7078651934482 584.7793564031524 1076.1399999999999 575.5400000000001 L 1062.7199999999998 575.5400000000001 C 1045.0851952431306 575.5202983930742 1029.2275669585515 564.7981994282014 1022.6399999999998 548.44 C 1013.0436297535069 561.967674390255 994.5751596282015 565.6876580525051 980.4899999999998 556.9300000000001 L 980.4899999999998 585.4300000000001 C 980.4851000669701 595.4514507086689 981.8305375849769 605.4278699046897 984.4899999999998 615.09 C 988.6404840980454 623.758199413643 993.9932417277233 631.7974354008575 1000.3899999999998 638.97 C 1017.3899999999998 657.97 1040.2799999999997 669.32 1064.9899999999998 670.9200000000001 C 1091.8058930755697 672.6755457118284 1118.1594874205462 663.2989476964298 1137.84 645 Z" stroke-linecap="round" />
</g>
		<g transform="matrix(0.38 0 0 0.38 10.82 -43.41)" id="t26UmYspnWsTQjsAYHIeH"  >
<path style="stroke: none; stroke-width: 1; stroke-dasharray: none; stroke-linecap: butt; stroke-dashoffset: 0; stroke-linejoin: miter; stroke-miterlimit: 4; fill: rgb(69,233,255); fill-rule: nonzero; opacity: 1;" vector-effect="non-scaling-stroke"  transform=" translate(-1118.66, -389.77)" d="M 1124.59 448.34 L 1130.9499999999998 404.71 L 1123.6 354.21 C 1122.1715827063401 344.0997378264551 1115.6712099434926 335.42251359282216 1106.37 331.21 C 1107.5362386422894 333.7951051211274 1108.3307826013179 336.53224172574664 1108.7299999999998 339.34 Z" stroke-linecap="round" />
</g>
		<g transform="matrix(0.38 0 0 0.38 -14.83 -6.69)" id="zqmk5oJMVPM2jfJrm4Jtp"  >
<path style="stroke: none; stroke-width: 1; stroke-dasharray: none; stroke-linecap: butt; stroke-dashoffset: 0; stroke-linejoin: miter; stroke-miterlimit: 4; fill: rgb(69,233,255); fill-rule: nonzero; opacity: 1;" vector-effect="non-scaling-stroke"  transform=" translate(-1051.14, -486.4)" d="M 1073.84 514 L 1073.84 472.75 C 1073.843914745923 466.4745864549674 1071.2395445366387 460.479826098409 1066.6499999999999 456.2 L 1066 456.2 C 1048.6469217202402 456.2165284958926 1034.5820487997614 470.2769278562822 1034.56 487.63 L 1034.56 490.32 C 1032.7331073740793 488.408293781035 1030.6776209221596 486.72897478436846 1028.44 485.32 L 1028.44 516.6 C 1031.2865630978104 514.8864674650026 1034.5474891634362 513.9839205899991 1037.8700000000001 513.99 Z" stroke-linecap="round" />
</g>
		<g transform="matrix(0.38 0 0 0.38 -2.83 -2.81)" id="j9TWEMZzXbj7dXnnj3WsM"  >
<path style="stroke: none; stroke-width: 1; stroke-dasharray: none; stroke-linecap: butt; stroke-dashoffset: 0; stroke-linejoin: miter; stroke-miterlimit: 4; fill: rgb(255,48,214); fill-rule: nonzero; opacity: 1;" vector-effect="non-scaling-stroke"  transform=" translate(-1082.72, -496.59)" d="M 1197.24 330.77 C 1196.3310117201227 328.7741592454592 1195.2077464687043 326.8830499863546 1193.89 325.13 C 1186.634490624557 315.4948899750331 1174.2892338899467 311.1793106153435 1162.6110875488757 314.19570905170633 C 1150.9329412078048 317.2121074880692 1142.2218569388524 326.9664193506472 1140.5400000000002 338.90999999999997 L 1130.9500000000003 404.71 L 1124.5900000000004 448.34 L 1108.7300000000005 339.34 C 1106.403620775886 323.0339130216391 1091.3089679059658 311.6939040170802 1075 314 C 1058.6925666881652 316.30203334817315 1047.3334495989768 331.38038853866766 1049.62 347.69 L 1063.12 443.74 C 1059.3424269995323 442.1801005455879 1055.296955777534 441.37168564144383 1051.2099999999998 441.36 L 1051.12 441.36 C 1033.766927856282 441.3820487997615 1019.7065284958926 455.44692172024037 1019.6899999999999 472.8 L 1019.6899999999999 475.49 C 1010.8145464059794 466.21573621553756 997.1899414335924 463.2732960421906 985.2781871201581 468.05824686950143 C 973.3664328067239 472.8431976968123 965.5634069919654 484.39311557364294 965.5699999999999 497.23 L 965.5699999999999 570.61 C 965.5401635960372 597.9850201264107 975.5973532374353 624.4113984301622 993.8199999999999 644.84 C 997.5366393241646 649.0070749985692 1001.5685508651598 652.8818556586134 1005.8799999999999 656.4300000000001 C 1022.450644386133 670.1471439003348 1042.9247286186837 678.2898877063757 1064.3899999999999 679.7 Q 1067.82 679.9300000000001 1071.2399999999998 679.9300000000001 C 1098.1583473245257 679.9481129723434 1124.0817358081342 669.7560115172495 1143.7799999999997 651.4100000000001 C 1165.3799999999997 631.1600000000001 1177.2699999999998 602.6800000000001 1177.2699999999998 571.22 L 1177.2699999999998 571.22 C 1177.2699999999998 506.43 1177.2699999999998 506.43 1186.6299999999997 440.62 C 1189.7299999999996 418.85 1193.9699999999996 389.03 1199.5599999999997 347.28 C 1200.381129425693 341.66804337019244 1199.5759830491997 335.9383163547166 1197.24 330.77 Z M 1028.48 472.77 C 1028.491017592467 460.24712878708635 1038.6371348605965 450.09653792227795 1051.16 450.08 L 1051.22 450.08 C 1055.3070684579714 450.09180111796485 1059.314998832596 451.20780242055434 1062.82 453.31 C 1064.1942495699177 454.14437610785444 1065.4778432466228 455.1196391885887 1066.6499999999999 456.22 C 1071.2395445366387 460.49982609840896 1073.843914745923 466.4945864549674 1073.84 472.77000000000004 L 1073.84 514 L 1037.9099999999999 514 C 1034.587489163436 513.9939205899991 1031.32656309781 514.8964674650026 1028.4799999999998 516.61 L 1028.4799999999998 472.75 Z M 974.36 497.2 C 974.6191642789087 484.8570035488307 984.6992830294454 474.9863139720814 997.0450000000001 474.9863139720814 C 1009.3907169705546 474.9863139720814 1019.4708357210914 484.8570035488307 1019.73 497.2 L 1019.73 529.75 C 1019.6010290728437 530.6206864227815 1019.5375177413132 531.4998169592297 1019.54 532.38 C 1019.54 532.62 1019.54 532.87 1019.54 533.12 C 1017.9967506764202 544.9717877523995 1007.5244609156497 553.5944349029245 995.5968186977909 552.8342753634813 C 983.6691764799322 552.0741158240382 974.3762241738283 542.1918117327609 974.3499999999999 530.24 Z M 1137.84 645 C 1118.1619306152465 663.2963386658724 1091.8125030819856 672.6727412147758 1065 670.92 C 1040.29 669.3199999999999 1017.35 657.9699999999999 1000.4 638.9699999999999 C 983.6406834542248 620.1246592858048 974.3880149576684 595.7794649839038 974.4 570.56 L 974.4 552 C 976.225975458246 553.9166995037908 978.2854210847263 555.5965083345251 980.53 557 C 994.6151596282017 565.757658052505 1013.0836297535071 562.0376743902549 1022.68 548.51 C 1029.2675669585517 564.8681994282014 1045.1251952431307 575.5902983930741 1062.76 575.61 L 1076.18 575.61 C 1062.7478651934484 584.8493564031523 1054.7226460281559 600.1069958227208 1054.72 616.41 L 1054.72 629.7 L 1063.47 629.7 L 1063.47 616.34 C 1063.4975496290608 593.8182035073646 1081.7482035073645 575.567549629061 1104.27 575.5400000000001 L 1104.27 566.7900000000001 L 1062.76 566.7900000000001 C 1044.1937240974642 566.768380440721 1028.980174750303 552.0455907499199 1028.35 533.4900000000001 C 1028.4499999999998 532.4900000000001 1028.51 531.4900000000001 1028.52 530.4900000000001 C 1029.4240352959398 525.998022194803 1033.367956954423 522.7650938363645 1037.95 522.7600000000001 L 1120.17 522.7600000000001 C 1146.9057264765613 522.7875597853584 1168.5724402146418 544.4542735234389 1168.6000000000001 571.19 C 1168.56 600.19 1157.65 626.4 1137.84 645 Z M 1190.94 346 C 1185.3400000000001 387.74 1181.1000000000001 417.54 1178.01 439.3 C 1170.3 493.5 1168.8799999999999 503.47 1168.62 540.85 C 1158.1727608436056 524.1257919266437 1139.849123393801 513.9606888662242 1120.1299999999999 513.95 L 1082.59 513.95 L 1082.59 472.75 C 1082.5987975849991 466.7639446130177 1080.8875847670117 460.9013919769518 1077.6599999999999 455.86 C 1076.3054986595328 453.74444444333733 1074.704259038238 451.7974444845303 1072.8899999999999 450.06 L 1058.33 346.42 C 1056.7173285304941 334.89381727103137 1064.7538172710313 324.2426714695059 1076.28 322.63 C 1087.8061827289687 321.0173285304941 1098.4573285304941 329.0538172710314 1100.07 340.58000000000004 L 1120.26 479.33000000000004 C 1120.5860711684672 481.4694700755049 1122.4258247273185 483.05007576192446 1124.5900000000001 483.05007576192446 C 1126.7541752726816 483.05007576192446 1128.5939288315328 481.4694700755049 1128.92 479.33000000000004 L 1135.3700000000001 435.06000000000006 L 1149.2 340.1500000000001 C 1151.0058859337598 328.7945546600998 1161.5784840895901 320.98099023804895 1172.9638335374675 322.5875956105453 C 1184.349182985345 324.19420098304164 1192.3468313483927 334.6282434117094 1190.94 346.0400000000001 Z" stroke-linecap="round" />
</g>
		<g transform="matrix(0.38 0 0 0.38 9.33 -37.31)" id="iBu6G9z8HRdWf4TXt0cgr"  >
<path style="stroke: none; stroke-width: 1; stroke-dasharray: none; stroke-linecap: butt; stroke-dashoffset: 0; stroke-linejoin: miter; stroke-miterlimit: 4; fill: rgb(69,44,214); fill-rule: nonzero; opacity: 1;" vector-effect="non-scaling-stroke"  transform=" translate(-1114.72, -405.8)" d="M 1120.26 479.33 C 1120.5860711684672 481.46947007550483 1122.4258247273185 483.0500757619244 1124.5900000000001 483.0500757619244 C 1126.7541752726816 483.0500757619244 1128.5939288315328 481.46947007550483 1128.92 479.33 L 1135.3700000000001 435.06 L 1131 404.71 L 1124.64 448.34 L 1108.7800000000002 339.34 C 1108.3807826013183 336.53224172574664 1107.5862386422898 333.7951051211274 1106.4200000000003 331.21 C 1102.5408505939022 329.439905613933 1098.3238859593332 328.5323711537426 1094.0600000000004 328.54999999999995 C 1097.3439832703477 331.77524704375173 1099.473786516315 335.9926792139838 1100.1200000000003 340.54999999999995 Z" stroke-linecap="round" />
</g>
		<g transform="matrix(0.38 0 0 0.38 0.01 0)" id="wY8R3aBoUXM08TtUWg-BR"  >
<path style="stroke: none; stroke-width: 1; stroke-dasharray: none; stroke-linecap: butt; stroke-dashoffset: 0; stroke-linejoin: miter; stroke-miterlimit: 4; fill: rgb(69,44,214); fill-rule: nonzero; opacity: 1;" vector-effect="non-scaling-stroke"  transform=" translate(-1090.19, -504)" d="M 1197.24 330.77 C 1193.354218407985 329.0222736070155 1189.140726100438 328.1223043762774 1184.88 328.13 C 1189.6114655170643 332.81022536807274 1191.8575429264358 339.4483848403243 1190.94 346.04 C 1185.3400000000001 387.78000000000003 1181.1000000000001 417.58000000000004 1178.01 439.34000000000003 C 1170.3 493.54 1168.8799999999999 503.51000000000005 1168.62 540.89 C 1158.1727608436056 524.1657919266437 1139.849123393801 514.0006888662242 1120.1299999999999 513.99 L 1082.59 513.99 L 1082.59 472.75 C 1082.5987975849991 466.7639446130177 1080.8875847670117 460.9013919769518 1077.6599999999999 455.86 L 1078.04 458.57 C 1074.424663849849 457.07559996294106 1070.5613605212004 456.27173438885 1066.6499999999999 456.2 C 1071.2395445366387 460.4798260984089 1073.843914745923 466.4745864549674 1073.84 472.75 L 1073.84 514 L 1037.9099999999999 514 C 1034.587489163436 513.9939205899991 1031.32656309781 514.8964674650026 1028.4799999999998 516.61 L 1028.4799999999998 485.35 C 1023.6898899384025 482.3684687169407 1018.1813231142504 480.74078052737 1012.5399999999997 480.64000000000004 C 1017.1269996282473 484.9174550173149 1019.7311396518403 490.9080636390435 1019.7299999999998 497.18000000000006 L 1019.7299999999998 529.73 C 1019.6010290728435 530.6006864227816 1019.537517741313 531.4798169592298 1019.5399999999997 532.36 C 1019.5399999999997 532.6 1019.5399999999997 532.85 1019.5399999999997 533.1 C 1018.4354553142402 541.8231102504167 1012.3843328161914 549.1197710605459 1004.0161850239285 551.819173574179 C 995.6480372316655 554.5185760878122 986.4737241561706 552.1333461078585 980.4799999999998 545.7 L 980.4799999999998 556.9300000000001 C 994.5651596282015 565.6876580525051 1013.033629753507 561.967674390255 1022.6299999999998 548.44 C 1029.2175669585515 564.7981994282014 1045.0751952431306 575.5202983930742 1062.7099999999998 575.5400000000001 L 1076.1299999999999 575.5400000000001 C 1062.6978651934483 584.7793564031524 1054.6726460281557 600.0369958227209 1054.6699999999998 616.34 L 1054.6699999999998 629.7 L 1063.4199999999998 629.7 L 1063.4199999999998 616.34 C 1063.4475496290606 593.8182035073646 1081.6982035073643 575.567549629061 1104.2199999999998 575.5400000000001 L 1104.2199999999998 566.7900000000001 L 1062.7099999999998 566.7900000000001 C 1044.143724097464 566.768380440721 1028.9301747503027 552.0455907499199 1028.2999999999997 533.4900000000001 C 1028.3999999999996 532.4900000000001 1028.4599999999998 531.4900000000001 1028.4699999999998 530.4900000000001 C 1029.3740352959396 525.998022194803 1033.317956954423 522.7650938363645 1037.8999999999999 522.7600000000001 L 1120.12 522.7600000000001 C 1146.8557264765611 522.7875597853584 1168.5224402146416 544.4542735234389 1168.55 571.19 C 1168.55 600.19 1157.6399999999999 626.4200000000001 1137.83 644.99 C 1118.1560163071513 663.2873600206443 1091.8105598825466 672.6672540902584 1065 670.92 C 1040.29 669.3199999999999 1017.35 657.9699999999999 1000.4 638.9699999999999 C 994.0032417277235 631.7974354008574 988.6504840980456 623.7581994136428 984.5 615.0899999999999 C 988.6486531743385 630.2117404205475 995.9521561466184 644.2836787185148 1005.93 656.3799999999999 C 1022.5006443861331 670.0971439003346 1042.974728618684 678.2398877063756 1064.44 679.6499999999999 Q 1067.8700000000001 679.8799999999999 1071.29 679.8799999999999 C 1098.208347324526 679.8981129723433 1124.1317358081344 669.7060115172493 1143.83 651.3599999999999 C 1165.4299999999998 631.1099999999999 1177.32 602.6299999999999 1177.32 571.1699999999998 L 1177.32 571.1699999999998 C 1177.32 506.3799999999998 1177.32 506.3799999999998 1186.6799999999998 440.5699999999998 C 1189.7799999999997 418.79999999999984 1194.0199999999998 388.9799999999998 1199.61 347.2299999999998 C 1200.4057631723276 341.6295897805236 1199.583436731079 335.91841120543774 1197.24 330.77 Z" stroke-linecap="round" />
</g>
</g>
</g>
</svg>